<svg xmlns="http://www.w3.org/2000/svg" width="548" height="548" fill="transparent"><path stroke="black" d="M 161.457 62.348  C 153.251 64.686, 145.269 70.799, 141.673 77.500  C 136.710 86.748, 136.999 74.552, 137.015 273.872  C 137.027 435.697, 137.220 460.048, 138.519 463.777  C 142.440 475.033, 151.009 482.955, 162.500 485.947  C 168.450 487.497, 379.547 487.390, 385.807 485.834  C 393.634 483.889, 401.381 478.435, 405.456 472  C 411.374 462.653, 411 476.011, 411 274  C 411 105.293, 410.858 88.931, 409.355 84.428  C 405.805 73.794, 396.222 64.731, 385.807 62.159  C 379.163 60.518, 167.254 60.697, 161.457 62.348  L163.5,74.061 C 158.945 75.398, 153.493 80.420, 151.124 85.460  L 149 89.978 149.028 274.239  L 149.056 458.500 151.353 463  C 154.578 469.317, 160.631 473.693, 167.230 474.478  C 170.129 474.823, 220.200 474.969, 278.500 474.803  L 384.500 474.500 388.271 472.155  C 392.660 469.427, 396.251 464.914, 397.862 460.101  C 399.570 454.999, 399.481 93.342, 397.770 87.616  C 396.191 82.330, 389.403 75.483, 384.351 74.081  C 379.586 72.757, 168.005 72.739, 163.500 74.061  L267.784,117.195 C 259.854 119.303, 254.898 128.520, 256.523 138.137  C 257.536 144.133, 264.059 150.462, 270.074 151.287  C 282.830 153.035, 291 146.197, 291 133.773  C 291 127.631, 290.786 127.039, 287.025 122.766  C 284.102 119.445, 281.868 117.952, 278.582 117.125  C 273.479 115.840, 272.864 115.844, 267.784 117.195  L270,130 C 265.815 134.185, 269.436 140.763, 275.281 139.594  C 279.091 138.832, 278.969 138.966, 279.645 134.798  C 280.634 128.703, 274.398 125.602, 270 130  L251.25,224.22 L 249 225.306 249 273.596  L 249 321.887 251.223 323.443  C 253.059 324.730, 257.015 325, 274 325  C 290.985 325, 294.941 324.730, 296.777 323.443  L 299 321.887 299 274  L 299 226.113 296.777 224.557  C 294.933 223.265, 291.066 223.012, 274.027 223.068  C 261.461 223.109, 252.627 223.556, 251.250 224.220  L261,236.5 C 261 237.756, 263.111 238, 274 238  C 284.889 238, 287 237.756, 287 236.500  C 287 235.244, 284.889 235, 274 235  C 263.111 235, 261 235.244, 261 236.500  L261,259 L 261 268 274 268  L 287 268 287 259  L 287 250 274 250  L 261 250 261 259  L261,296.5 L 261 313 274 313  L 287 313 287 296.500  L 287 280 274 280  L 261 280 261 296.500  L267.5,396.718 C 263.708 397.639, 258.824 402.244, 256.915 406.699  C 254.849 411.518, 254.385 417.502, 256 418.500  C 256.550 418.840, 257 419.916, 257 420.892  C 257 423.771, 263.856 429.792, 269.129 431.543  C 273.634 433.039, 274.376 433.036, 279.005 431.498  C 288.412 428.374, 292.868 420.944, 291.462 410.725  C 290.901 406.648, 289.997 404.944, 286.576 401.524  C 281.520 396.468, 275.143 394.861, 267.500 396.718  L270.751,408.689 C 266.701 409.748, 267.377 418.555, 271.589 419.612  C 275.852 420.682, 279 418.585, 279 414.676  C 279 409.566, 275.928 407.336, 270.751 408.689"></path></svg>